<?xml version="1.0" encoding="utf-8"?>
<!-- Generator: Adobe Illustrator 16.0.4, SVG Export Plug-In . SVG Version: 6.00 Build 0)  -->
<!DOCTYPE svg PUBLIC "-//W3C//DTD SVG 1.1//EN" "http://www.w3.org/Graphics/SVG/1.1/DTD/svg11.dtd">
<svg version="1.1" id="Layer_1" xmlns="http://www.w3.org/2000/svg" xmlns:xlink="http://www.w3.org/1999/xlink" x="0px" y="0px"
	 width="392px" height="70px" viewBox="0 0 392 70" enable-background="new 0 0 392 70" xml:space="preserve">
<g>
	<g>
		<path fill="#FFFFFF" d="M62.541,1.114h3.969V35.41h-3.969V1.114z"/>
		<path fill="#FFFFFF" d="M82.923,7.532h-0.098c0,0.049,0.098,3.969,0.098,8.231V35.41h-3.969V1.114h4.018l20.088,27.634h0.098
			c0-0.05-0.098-4.067-0.098-8.036V1.114h4.018V35.41h-4.067L82.923,7.532z"/>
		<path fill="#FFFFFF" d="M142.358,19.389h-18.913V35.41h-3.969V1.114h3.969v14.453h18.913V1.114h4.018V35.41h-4.018V19.389z"/>
		<path fill="#FFFFFF" d="M164.214,26.297l-3.822,9.113h-4.263L170.73,1.114h4.361l14.601,34.296h-4.263l-3.821-9.113H164.214z
			 M176.316,13.706c-1.323-3.136-3.332-7.986-3.381-8.035h-0.098c-0.049,0.049-2.058,4.899-3.332,7.986l-3.773,9.015h14.356
			L176.316,13.706z"/>
		<path fill="#FFFFFF" d="M216.741,17.086c3.233,0.539,7.79,2.939,7.79,8.77c0,5.782-4.165,9.554-11.711,9.554h-13.277V1.114h12.348
			c6.271,0,10.239,3.625,10.239,8.427c0,4.508-2.892,6.811-5.389,7.398V17.086z M211.498,15.812c3.82,0,6.613-1.96,6.613-5.684
			c0-3.381-2.596-5.585-7.006-5.585h-7.595v11.269H211.498z M212.625,31.981c4.605,0,7.741-2.106,7.741-6.32
			c0-4.312-3.625-6.713-7.839-6.713h-9.017v13.033H212.625z"/>
		<path fill="#FFFFFF" d="M234.971,1.114h3.969V35.41h-3.969V1.114z"/>
		<path fill="#FFFFFF" d="M265.2,4.837V35.41h-4.019V4.837h-11.759V1.114h27.585v3.724L265.2,4.837L265.2,4.837z"/>
		<path fill="#FFFFFF" d="M287.546,26.297l-3.821,9.113h-4.263l14.601-34.296h4.36l14.601,34.296h-4.262l-3.822-9.113H287.546z
			 M299.646,13.706c-1.321-3.136-3.332-7.986-3.381-8.035h-0.098c-0.049,0.049-2.059,4.899-3.332,7.986l-3.771,9.015h14.355
			L299.646,13.706z"/>
		<path fill="#FFFFFF" d="M326.844,7.532h-0.098c0,0.049,0.098,3.969,0.098,8.231V35.41h-3.969V1.114h4.02l20.088,27.634h0.098
			c0-0.05-0.098-4.067-0.098-8.036V1.114H351V35.41h-4.066L326.844,7.532z"/>
		<path fill="#FFFFFF" d="M377.214,4.837V35.41h-4.019V4.837h-11.758V1.114h27.584v3.724L377.214,4.837L377.214,4.837z"/>
		<path fill="#FFFFFF" d="M77.468,63.496c-1.512,3.695-5.012,5.879-9.156,5.879c-5.712,0-10.08-4.031-10.08-10.221
			c0-6.158,4.34-10.135,10.08-10.135c4.536,0,7.672,2.463,8.904,5.348l-2.212,0.615c-0.728-1.344-2.66-3.808-6.748-3.808
			c-4.536,0-7.728,3.08-7.728,8.009c0,4.955,3.36,8.008,7.672,8.008c3.192,0,5.824-1.652,7.056-4.283L77.468,63.496z"/>
		<path fill="#FFFFFF" d="M86.568,63.803l-2.184,5.209h-2.436l8.344-19.6h2.492l8.344,19.6h-2.436l-2.184-5.209H86.568z
			 M93.484,56.607c-0.756-1.793-1.904-4.564-1.932-4.592h-0.056c-0.028,0.026-1.176,2.799-1.904,4.563l-2.156,5.149h8.204
			L93.484,56.607z"/>
		<path fill="#FFFFFF" d="M122.631,60.191c0-3.023,0.084-7.058,0.084-7.084h-0.056c-0.028,0.026-0.784,1.596-2.548,4.731
			l-3.584,6.354h-1.372l-3.556-6.271c-1.82-3.221-2.548-4.789-2.576-4.815h-0.056c0,0.026,0.056,4.061,0.056,7.084v8.819h-2.268
			v-19.6h2.408l6.664,11.928h0.056l6.692-11.928h2.352v19.6h-2.296V60.191L122.631,60.191z"/>
		<path fill="#FFFFFF" d="M137.947,49.412c4.564,0,7.308,2.1,7.308,6.104c0,3.894-2.744,6.076-7.308,6.076h-3.668v7.42h-2.268v-19.6
			H137.947z M138.003,59.576c3.276,0,4.956-1.43,4.956-4.033c0-2.771-1.848-4.031-4.956-4.031h-3.724v8.064H138.003z"/>
		<path fill="#FFFFFF" d="M150.938,49.412h2.268v19.6h-2.268V49.412z"/>
		<path fill="#FFFFFF" d="M162.586,53.08h-0.056c0,0.027,0.056,2.268,0.056,4.703v11.229h-2.268v-19.6h2.296l11.48,15.791h0.056
			c0-0.027-0.056-2.324-0.056-4.592V49.412h2.296v19.6h-2.324L162.586,53.08z"/>
		<path fill="#FFFFFF" d="M199.714,69.012c0-2.24,0.028-2.576,0.028-2.828h-0.057c-0.951,1.092-3.388,3.191-7.251,3.191
			c-5.572,0-10.052-4.031-10.052-10.191c0-6.188,4.368-10.164,10.136-10.164c4.48,0,7.671,2.437,8.904,5.349l-2.24,0.614
			c-0.644-1.202-2.492-3.807-6.72-3.807c-4.536,0-7.784,3.08-7.784,7.979c0,4.983,3.416,8.036,7.896,8.036
			c3.696,0,6.271-2.045,7.056-3.5v-2.801h-5.824v-2.127h7.952v10.248H199.714z"/>
		<path fill="#FFFFFF" d="M219.202,63.271c0.224,2.799,2.547,4.061,5.543,4.061c2.856,0,4.592-1.148,4.592-3.5
			c0-3.221-3.248-3.389-5.685-3.92c-2.659-0.617-6.075-1.568-6.075-5.545c0-3.416,2.521-5.348,6.637-5.348
			c3.64,0,6.328,1.512,7.168,4.871l-2.185,0.588c-0.532-2.154-2.129-3.416-5.012-3.416c-2.856,0-4.285,1.231-4.285,3.221
			c0,2.604,2.466,3.164,5.265,3.725c2.912,0.559,6.496,1.484,6.496,5.795c0,3.697-2.576,5.572-6.943,5.572
			c-3.305,0-7.084-1.092-7.7-5.516L219.202,63.271z"/>
		<path fill="#FFFFFF" d="M253.025,60.836c0,5.543-2.772,8.539-7.84,8.539c-5.098,0-7.842-2.996-7.842-8.539V49.412h2.324v11.424
			c0,4.256,1.736,6.355,5.518,6.355c3.808,0,5.57-2.101,5.57-6.355V49.412h2.27V60.836z"/>
		<path fill="#FFFFFF" d="M265.82,49.412c4.563,0,7.309,2.1,7.309,6.104c0,3.894-2.744,6.076-7.309,6.076h-3.668v7.42h-2.269v-19.6
			H265.82z M265.877,59.576c3.275,0,4.956-1.43,4.956-4.033c0-2.771-1.849-4.031-4.956-4.031h-3.725v8.064H265.877z"/>
		<path fill="#FFFFFF" d="M284.749,49.412c4.563,0,7.308,2.1,7.308,6.104c0,3.894-2.744,6.076-7.308,6.076h-3.668v7.42h-2.269v-19.6
			H284.749z M284.805,59.576c3.276,0,4.956-1.43,4.956-4.033c0-2.771-1.848-4.031-4.956-4.031h-3.724v8.064H284.805z"/>
		<path fill="#FFFFFF" d="M297.741,49.412h2.268v17.471h10.332v2.129h-12.6V49.412z"/>
		<path fill="#FFFFFF" d="M320.869,69.012h-2.296V60.5l-7.562-11.088h2.633l4.396,6.439c1.008,1.455,1.708,2.52,1.734,2.547h0.058
			c0.026-0.027,0.672-1.062,1.681-2.49l4.451-6.496h2.492L320.869,60.5V69.012z"/>
		<path fill="#FFFFFF" d="M361.833,63.496c-1.513,3.695-5.013,5.879-9.156,5.879c-5.711,0-10.079-4.031-10.079-10.221
			c0-6.158,4.34-10.135,10.079-10.135c4.536,0,7.673,2.463,8.904,5.348l-2.212,0.615c-0.729-1.344-2.66-3.808-6.748-3.808
			c-4.536,0-7.729,3.08-7.729,8.009c0,4.955,3.359,8.008,7.672,8.008c3.191,0,5.824-1.652,7.057-4.283L361.833,63.496z"/>
		<path fill="#FFFFFF" d="M374.797,53.023c4.646,0,8.23,3.416,8.23,8.176c0,4.703-3.584,8.148-8.23,8.148s-8.23-3.445-8.23-8.148
			C366.564,56.439,370.148,53.023,374.797,53.023z M374.797,67.332c3.416,0,6.021-2.521,6.021-6.133c0-3.668-2.604-6.16-6.021-6.16
			s-6.021,2.492-6.021,6.16C368.775,64.811,371.381,67.332,374.797,67.332z"/>
		<path fill="#FFFFFF" d="M387.79,67.863c0-0.783,0.53-1.4,1.512-1.4s1.513,0.617,1.513,1.4s-0.531,1.428-1.513,1.428
			C388.294,69.291,387.79,68.646,387.79,67.863z"/>
	</g>
</g>
<g>
	<polygon fill="#248A83" points="22.794,1.026 1,23.296 4.397,26.768 22.802,7.961 41.207,26.768 44.604,23.296 22.784,1 	"/>
	<polygon fill="#248A83" points="22.794,17.176 1,39.445 4.397,42.917 22.802,24.111 41.207,42.917 44.604,39.445 22.784,17.149 	
		"/>
	<polygon fill="#248A83" points="22.794,33.326 1,55.598 4.397,59.066 22.802,40.261 41.207,59.066 44.604,55.598 22.784,33.299 	
		"/>
	<rect x="20.38" y="6.293" fill="#248A83" width="4.845" height="62.984"/>
</g>
</svg>
